<?xml version="1.0" encoding="UTF-8" standalone="no"?>
<svg
   xmlns:dc="http://purl.org/dc/elements/1.1/"
   xmlns:cc="http://creativecommons.org/ns#"
   xmlns:rdf="http://www.w3.org/1999/02/22-rdf-syntax-ns#"
   xmlns:svg="http://www.w3.org/2000/svg"
   xmlns="http://www.w3.org/2000/svg"
   id="svg973"
   viewBox="0 0 256 256"
   style="clip-rule:evenodd;fill-rule:evenodd;image-rendering:optimizeQuality;shape-rendering:geometricPrecision;text-rendering:geometricPrecision"
   version="1.1"
   height="256"
   width="256"
   xml:space="preserve"><metadata
   id="metadata977"><rdf:RDF><cc:Work
       rdf:about=""><dc:format>image/svg+xml</dc:format><dc:type
         rdf:resource="http://purl.org/dc/dcmitype/StillImage" /><dc:title></dc:title></cc:Work></rdf:RDF></metadata>
 <defs
   id="defs943">
  <style
   id="style897"
   type="text/css">
   <![CDATA[
    .fil0 {fill:white}
    .fil4 {fill:#080B2B}
    .fil1 {fill:#0E0E33}
    .fil9 {fill:#0E0E33}
    .fil6 {fill:#F4F6D7}
    .fil5 {fill:#FEFEE8}
    .fil8 {fill:url(#id4)}
    .fil7 {fill:url(#id5)}
    .fil2 {fill:url(#id6)}
    .fil3 {fill:url(#id7)}
   ]]>
  </style>
   <mask
   id="id0">
  <linearGradient
   y2="204.28"
   x2="1628.72"
   y1="216.13"
   x1="1621.28"
   gradientUnits="userSpaceOnUse"
   id="id1">
   <stop
   id="stop899"
   style="stop-opacity:0; stop-color:white"
   offset="0" />
   <stop
   id="stop901"
   style="stop-opacity:-127.502; stop-color:white"
   offset="0.321569" />
   <stop
   id="stop903"
   style="stop-opacity:1; stop-color:white"
   offset="1" />
  </linearGradient>
    <rect
   id="rect906"
   height="23.51"
   width="26.48"
   y="192.62"
   x="1621.28"
   style="fill:url(#id1)" />
   </mask>
   <mask
   id="id2">
  <linearGradient
   y2="219.75999"
   x2="1544.63"
   y1="217.83"
   x1="1538.5601"
   gradientUnits="userSpaceOnUse"
   id="id3">
   <stop
   id="stop909"
   style="stop-opacity:0; stop-color:white"
   offset="0" />
   <stop
   id="stop911"
   style="stop-opacity:1; stop-color:white"
   offset="1" />
  </linearGradient>
    <rect
   id="rect914"
   height="9.8699999"
   width="11.52"
   y="217.32001"
   x="1538.54"
   style="fill:url(#id3)" />
   </mask>
  <radialGradient
   fy="228.69"
   fx="1549.2"
   r="43.990002"
   cy="228.69"
   cx="1549.2"
   gradientTransform="matrix(0.620688,1.30533,-0.7119,0.412488,750,-1888)"
   gradientUnits="userSpaceOnUse"
   id="id4">
   <stop
   id="stop917"
   style="stop-opacity:1; stop-color:#3C82A8"
   offset="0" />
   <stop
   id="stop919"
   style="stop-opacity:1; stop-color:#141E46"
   offset="1" />
  </radialGradient>
  <radialGradient
   fy="228.35001"
   fx="1545.25"
   r="61.18"
   cy="228.35001"
   cx="1545.25"
   gradientTransform="matrix(0.569793,1.11411,-0.572099,0.60479,795,-1631)"
   gradientUnits="userSpaceOnUse"
   id="id5">
   <stop
   id="stop922"
   style="stop-opacity:1; stop-color:#FEFDEC"
   offset="0" />
   <stop
   id="stop924"
   style="stop-opacity:1; stop-color:#C7CAC3"
   offset="0.639216" />
   <stop
   id="stop926"
   style="stop-opacity:1; stop-color:#91979A"
   offset="1" />
  </radialGradient>
  <radialGradient
   fy="214.75"
   fx="1644.51"
   r="86.480003"
   cy="214.75"
   cx="1644.51"
   gradientTransform="matrix(-0.970126,1.15331,-0.948246,-0.901986,3444,-1488)"
   gradientUnits="userSpaceOnUse"
   id="id6">
   <stop
   id="stop929"
   style="stop-opacity:1; stop-color:#FEFDEC"
   offset="0" />
   <stop
   id="stop931"
   style="stop-opacity:1; stop-color:#C7CAC3"
   offset="0.768627" />
   <stop
   id="stop933"
   style="stop-opacity:1; stop-color:#91979A"
   offset="1" />
  </radialGradient>
  <radialGradient
   fy="215.28999"
   fx="1642.88"
   r="69.110001"
   cy="215.28999"
   cx="1642.88"
   gradientTransform="matrix(1.23708,-1.41074,0.643874,0.88986,-528,2341)"
   gradientUnits="userSpaceOnUse"
   id="id7">
   <stop
   id="stop936"
   style="stop-opacity:1; stop-color:#3C82A8"
   offset="0" />
   <stop
   id="stop938"
   style="stop-opacity:1; stop-color:#285077"
   offset="0.588235" />
   <stop
   id="stop940"
   style="stop-opacity:1; stop-color:#141E46"
   offset="1" />
  </radialGradient>
 </defs>
 <g
   transform="translate(0,-744)"
   style="display:inline"
   id="layer2" /><g
   transform="matrix(0.78143552,0,0,0.78143552,-1116.5089,-3.7644545)"
   id="Shapes">
  <metadata
   id="CorelCorpID_0Corel-Layer" />
  
  <path
   style="fill:#000000;fill-opacity:1"
   d="m 1598.2678,332.39082 c 4.712,-6.98426 7.7721,-12.72233 8.0322,-19.91082 -1.19,0.52 -3.2,0.58 -5.12,0 -17.07,-5.12 -22.03,-10.24 -27.66,-12.97 -1.44,-0.7 -6.72,-3.07 -12.57,-6.59 -6.72,-4.04 -14.2,-9.59 -17.47,-15.86 -0.66,-1.26 -1.2,-2.68 -1.47,-4.07 -0.31,-1.61 -0.31,-3.24 0.09,-4.9 -11.27,-10.93 -5.46,-21.86 -5.81,-30.06 -0.27,-6.49 -4.09,-19.12 -3.75,-37.22 -31.9378,15.01634 -47.6697,56.71482 -40.9232,96.10528 C 1457.493,263.80993 1450.615,205.94981 1471.41,166.66 c -13.17,13.57 -21.94,29.47 -27.39,49.23 -1.14,-0.44 -2.42,-0.93 -3.39,-1.29 -4.1,-52.59 18.83,-95.4 68.34,-128.37 -0.79,-1.36 -1.59,-2.73 -2.39,-4.09 -17.71,4.16 -34.51,9.62 -48.83,18.61 14.49,-11.15 29.8,-20.2 45.27,-27.05 0.52,-0.23 1.05,-0.46 1.57,-0.69 0.77,-0.33 1.54,-0.65 2.31,-0.97 0.64,-0.27 1.28,-0.54 1.93,-0.8 0.61,-0.25 1.22,-0.49 1.83,-0.73 0.93,-0.37 1.85,-0.73 2.78,-1.08 l 1.2,-0.45 c 0.4,-0.15 0.8,-0.29 1.21,-0.44 l 0.66,-0.24 c 0.37,-0.13 0.73,-0.26 1.1,-0.39 0.28,-0.1 0.57,-0.2 0.86,-0.3 45.88,-15.9 91.34,-12.28 119.6,13.5 -3.66,-9.06 -1.37,-18.61 4.78,-23.73 -3.42,9.56 -1.03,21.51 4.44,25.61 -0.35,-7.34 1.19,-15.88 4.09,-20.83 0,4.1 0.86,9.39 2.05,13.32 4.1,-34.84 21.9,-61.92 35.18,-63.18 7.17,-0.69 10.93,26.29 10.93,42.34 5.7931,-10.383651 24.3469,-28.627333 56.9043,-35.277542 -0.05,25.46004 -0.05,221.862182 -0.05,313.057102 -18.5486,0 -47.5904,0 -66.0199,-0.007 -45.6505,0.007 -72.5277,0.007 -92.1066,-0.0213 z M 1718.32,120.9 c -0.68,-0.17 -1.17,-2.83 -0.68,-3.42 3.41,-4.1 9.56,-6.14 15.36,-6.14 9.1603,0 18.557,5.59108 23.4044,12.90828 -0.01,8.32853 -0.01,26.42198 -0.01,26.42198 0,0 -8.3192,10.29864 -15.8793,14.96974 5.1557,-0.17224 10.5454,-1.53772 16.0954,-3.74635 -0.2211,2.62339 -0.2211,6.10719 -0.2914,10.74283 -11.4505,18.70419 -16.9318,41.24307 -15.124,68.47352 -4.29,7.81 -9.61,15.11 -16.05,21.86 20.15,-32.79 1.71,-77.19 14,-105.53 -3.75,3.07 -6.2,7.51 -8.88,11.27 2.05,-19.13 -11.61,-30.74 -9.22,-50.89 -1.21,0.72 -2.16,1.71 -2.73,3.08 z m 23.22,123.28 c -0.34,15.03 7.17,28.35 5.81,39.28 -13.66,12.63 -31.84,36.65956 -32.18,48.95956 h 41.2243 c -33.5141,0 -49.5038,0 -66.0199,-0.007 1.9767,-9.39278 4.8182,-17.42274 8.4756,-23.00208 13.66,-20.83 34.84,-39.27 42.69,-65.23 z M 1502.14,74.1 c -13.25,-21.63 -39.62,-63.5 -37.22,-65.9 2.73,-2.73 35.52,35.17 55.03,58.9 -0.98,0.35 -1.91,0.68 -2.82,1 -3.64,1.29 -6.95,2.53 -11.87,4.63 -1.14,0.48 -3.12,1.37 -3.12,1.37 z m 56.01,178.8 c -5.18,2.33 -14.77,9.8 -16.05,15.19 -2.93,12.3 15.69,23.38 24.83,28.18 17.04,8.94 41.75,-4.4 41.51,-17.67 -3.02,12.06 -19.22,18.95 -30.39,17.94 -18.47,-1.67 -34.79,-20.66 -34.5,-25.58 0.34,-5.81 8.95,-15.06 14.6,-18.06 z m 46.8,26.23 c 0.42,-5.46 7.67,-6.18 7.59,-0.38 -2.28,-4.58 -5.61,-2.65 -7.59,0.38 z m -21.26,-5.58 c -0.11,-4.14 6.62,-7.51 7.85,-2.62 -2.78,-1.76 -6.21,-0.7 -7.85,2.62 z"
   class="fil0"
   id="Body" />
  <path
   style="fill:#0e0e33"
   d="m 1612.91,251.66 c 0.19,-1.02 0.51,-2.12 0.77,-3.75 -11.47,-44 19.54,-63.07 62.75,-67.62 8.27,-0.87 17.9,-7.08 21,-12.98 -2.42,7.02 -8.7,12.76 -16.9,18.36 5.35,0.34 10.71,-1.26 14.6,-4.1 -3.65,5.25 -9.65,7.1 -16.31,7.85 -0.43,1.09 -0.85,2.17 -1.28,3.25 2.84,0.43 5.83,0.33 8.96,0.08 -1.84,1.69 -5.07,2.61 -9.3,2.99 1.05,29.26 -24.56,46.2 -59.34,53.19 -1.62,0.33 -3.25,1.39 -4.95,2.73 z"
   class="fil1"
   id="EyelashesL" />
  <path
   style="fill:url(#id6)"
   d="m 1615.56,248.53 c -2.61,-1.17 -4.93,-28.62 6.51,-40.56 9.73,-10.15 24.19,-20.04 49.5,-20.91 4.76,9.67 3.31,24.26 -3.05,33.72 -12.19,18.16 -50.96,28.65 -52.96,27.75 z"
   class="fil2"
   id="WhiteEyeL" />
  <path
   style="fill:url(#id7)"
   d="m 1627.11,202.91 c -2.9,21.46 16.93,33.38 34.86,23.17 11.35,-6.46 17.75,-28.8 5.18,-38.92 -13.35,0.21 -30.18,6.14 -40.04,15.75 z"
   class="fil3"
   id="IrisL" />
  <path
   style="fill:#080b2b"
   d="m 1657.88,194.68 c 11.23,6.36 2.23,28.07 -12.25,20.4 -11.05,-5.85 -1.47,-28.16 12.25,-20.4 z"
   class="fil4"
   id="PupilL" />
  <path
   mask="url(#id0)"
   d="m 1638.8,207.18 c 6.23,2.03 12.19,-14.43 6.95,-14.56 -3.17,-0.08 -7.55,2.94 -8.63,6.68 -2.15,0.38 -13.72,6.22 -15.84,16.83 4.91,-9.51 13.15,-14.77 15.29,-15.43 -0.44,3.01 0.27,5.84 2.23,6.48 z"
   style="fill:#fefee8"
   class="fil5"
   id="Blick1L" />
  <path
   style="fill:#f4f6d7"
   d="m 1660.67,211.65 c 1.38,1.28 3.47,-2.15 2.22,-3.16 -1.25,-1.02 -3.54,1.92 -2.22,3.16 z"
   class="fil6"
   id="Blick2L" />
  <path
   style="fill:#0e0e33"
   d="m 1557.76,251.95 c -1.11,-21.86 -9.69,-43.04 -25.35,-50.97 -2.62,-1.33 -4.99,-4.9 -5.81,-8.11 -1.45,4.04 -0.38,9.79 5.38,14.85 -2.1,1.24 -4.54,0.59 -7.09,-0.68 0.38,2.58 3.8,5.76 8.2,6.4 -1.17,1.94 -3.7,2.82 -7.6,2.48 1.8,1.99 4.61,2.73 8.45,2.22 1.11,14.43 11.27,30.39 23.82,33.81 z"
   class="fil1"
   id="EyelashesR" />
  <path
   style="fill:url(#id5)"
   d="m 1536.47,210.03 c -2.56,1.71 -0.86,34.32 20.61,41.72 0.39,-23.28 -18.57,-43.08 -20.61,-41.72 z"
   class="fil7"
   id="WhiteEyeR" />
  <path
   style="fill:url(#id4)"
   d="m 1541.85,213.67 c -0.51,10.49 3.99,29.22 14.74,30.04 -1.77,-11.76 -7.2,-22.39 -14.74,-30.04 z"
   class="fil8"
   id="IrisR" />
  <path
   style="fill:#0e0e33"
   d="m 1554.44,234.18 c -1.18,-5.03 -4.43,-12.09 -6.14,-11.83 -1.82,3.05 0.69,13.48 6.14,11.83 z"
   class="fil9"
   id="PupilR" />
  <path
   mask="url(#id2)"
   d="m 1545.24,219.18 c -1.85,-2 -5.17,-2.32 -6.7,-1.28 3.06,0.21 5.01,1.11 6.62,3.07 -0.69,7.42 5.31,7.43 4.87,4.02 -0.31,-2.39 -2.8,-5.14 -3.62,-5.76 -0.32,-0.23 -0.88,-0.2 -1.17,-0.05 z"
   style="fill:#f4f6d7"
   class="fil6"
   id="Blick1R" />
  <ellipse
   style="fill:#f4f6d7"
   ry="0.72000003"
   rx="0.75"
   cy="234.78"
   cx="1553.46"
   class="fil6"
   id="Blick2R" />
 </g>
 <g
   transform="translate(0,-744)"
   id="Text">
  <metadata
   id="CorelCorpID_1Corel-Layer" />
  
  
  
  
  
  
  
  
  
  
 </g>
<g
   transform="translate(0,-744)"
   style="display:inline"
   id="layer1" /></svg>