<?xml version="1.0" encoding="UTF-8" standalone="no"?>
<svg
   xmlns:dc="http://purl.org/dc/elements/1.1/"
   xmlns:cc="http://creativecommons.org/ns#"
   xmlns:rdf="http://www.w3.org/1999/02/22-rdf-syntax-ns#"
   xmlns:svg="http://www.w3.org/2000/svg"
   xmlns="http://www.w3.org/2000/svg"
   id="svg973"
   viewBox="0 0 2250 1000"
   style="shape-rendering:geometricPrecision; text-rendering:geometricPrecision; image-rendering:optimizeQuality; fill-rule:evenodd; clip-rule:evenodd"
   version="1.1"
   height="1000px"
   width="2250px"
   xml:space="preserve"><metadata
   id="metadata977"><rdf:RDF><cc:Work
       rdf:about=""><dc:format>image/svg+xml</dc:format><dc:type
         rdf:resource="http://purl.org/dc/dcmitype/StillImage" /><dc:title></dc:title></cc:Work></rdf:RDF></metadata>
 <defs
   id="defs943">
  <style
   id="style897"
   type="text/css">
   <![CDATA[
    .fil0 {fill:white}
    .fil4 {fill:#080B2B}
    .fil1 {fill:#0E0E33}
    .fil9 {fill:#0E0E33}
    .fil6 {fill:#F4F6D7}
    .fil5 {fill:#FEFEE8}
    .fil8 {fill:url(#id4)}
    .fil7 {fill:url(#id5)}
    .fil2 {fill:url(#id6)}
    .fil3 {fill:url(#id7)}
   ]]>
  </style>
   <mask
   id="id0">
  <linearGradient
   y2="204.28"
   x2="1628.72"
   y1="216.13"
   x1="1621.28"
   gradientUnits="userSpaceOnUse"
   id="id1">
   <stop
   id="stop899"
   style="stop-opacity:0; stop-color:white"
   offset="0" />
   <stop
   id="stop901"
   style="stop-opacity:-127.502; stop-color:white"
   offset="0.321569" />
   <stop
   id="stop903"
   style="stop-opacity:1; stop-color:white"
   offset="1" />
  </linearGradient>
    <rect
   id="rect906"
   height="23.51"
   width="26.48"
   y="192.62"
   x="1621.28"
   style="fill:url(#id1)" />
   </mask>
   <mask
   id="id2">
  <linearGradient
   y2="219.76"
   x2="1544.63"
   y1="217.83"
   x1="1538.56"
   gradientUnits="userSpaceOnUse"
   id="id3">
   <stop
   id="stop909"
   style="stop-opacity:0; stop-color:white"
   offset="0" />
   <stop
   id="stop911"
   style="stop-opacity:1; stop-color:white"
   offset="1" />
  </linearGradient>
    <rect
   id="rect914"
   height="9.87"
   width="11.52"
   y="217.32"
   x="1538.54"
   style="fill:url(#id3)" />
   </mask>
  <radialGradient
   fy="228.69"
   fx="1549.2"
   r="43.99"
   cy="228.69"
   cx="1549.2"
   gradientTransform="matrix(0.620688 1.30533 -0.7119 0.412488 750 -1888)"
   gradientUnits="userSpaceOnUse"
   id="id4">
   <stop
   id="stop917"
   style="stop-opacity:1; stop-color:#3C82A8"
   offset="0" />
   <stop
   id="stop919"
   style="stop-opacity:1; stop-color:#141E46"
   offset="1" />
  </radialGradient>
  <radialGradient
   fy="228.35"
   fx="1545.25"
   r="61.18"
   cy="228.35"
   cx="1545.25"
   gradientTransform="matrix(0.569793 1.11411 -0.572099 0.60479 795 -1631)"
   gradientUnits="userSpaceOnUse"
   id="id5">
   <stop
   id="stop922"
   style="stop-opacity:1; stop-color:#FEFDEC"
   offset="0" />
   <stop
   id="stop924"
   style="stop-opacity:1; stop-color:#C7CAC3"
   offset="0.639216" />
   <stop
   id="stop926"
   style="stop-opacity:1; stop-color:#91979A"
   offset="1" />
  </radialGradient>
  <radialGradient
   fy="214.75"
   fx="1644.51"
   r="86.48"
   cy="214.75"
   cx="1644.51"
   gradientTransform="matrix(-0.970126 1.15331 -0.948246 -0.901986 3444 -1488)"
   gradientUnits="userSpaceOnUse"
   id="id6">
   <stop
   id="stop929"
   style="stop-opacity:1; stop-color:#FEFDEC"
   offset="0" />
   <stop
   id="stop931"
   style="stop-opacity:1; stop-color:#C7CAC3"
   offset="0.768627" />
   <stop
   id="stop933"
   style="stop-opacity:1; stop-color:#91979A"
   offset="1" />
  </radialGradient>
  <radialGradient
   fy="215.29"
   fx="1642.88"
   r="69.11"
   cy="215.29"
   cx="1642.88"
   gradientTransform="matrix(1.23708 -1.41074 0.643874 0.88986 -528 2341)"
   gradientUnits="userSpaceOnUse"
   id="id7">
   <stop
   id="stop936"
   style="stop-opacity:1; stop-color:#3C82A8"
   offset="0" />
   <stop
   id="stop938"
   style="stop-opacity:1; stop-color:#285077"
   offset="0.588235" />
   <stop
   id="stop940"
   style="stop-opacity:1; stop-color:#141E46"
   offset="1" />
  </radialGradient>
 </defs>
 <g
   style="display:none"
   id="layer2"><rect
     y="-65.295921"
     x="-47.284676"
     height="1176.554"
     width="2492.1807"
     id="rect981"
     style="fill:#0061a7;fill-opacity:1" /></g><g
   id="Shapes">
  <metadata
   id="CorelCorpID_0Corel-Layer" />
  <polygon
   points="2148.22,489 226.22,489 211,524 2133,524 "
   class="fil0"
   id="Bar" />
  <path
   style="fill:#ffffff"
   d="m 1455.36,331.27 c -53.28,6.15 -126.36,2.05 -147.53,-29.71 34.15,-27.67 95.28,-28.35 148.89,-17.42 -53.96,-24.93 -87.42,-53.96 -95.96,-83.33 51.23,-4.78 187.83,33.13 208.66,158.46 -1.5,7.45 -2.28,16.55 -2.05,28.01 18.44,-47.13 38.25,-56.01 38.93,-74.8 -1.19,0.52 -3.2,0.58 -5.12,0 -17.07,-5.12 -22.03,-10.24 -27.66,-12.97 -1.44,-0.7 -6.72,-3.07 -12.57,-6.59 -6.72,-4.04 -14.2,-9.59 -17.47,-15.86 -0.66,-1.26 -1.2,-2.68 -1.47,-4.07 -0.31,-1.61 -0.31,-3.24 0.09,-4.9 -11.27,-10.93 -5.46,-21.86 -5.81,-30.06 -0.27,-6.49 -4.09,-19.12 -3.75,-37.22 -12.71,12.9 -26.9,24.12 -30.4,47.47 -11.72,-9.06 -25.9,-17.94 -41.73,-25.38 -1.64,-23.84 2.64,-41.32 11,-56.24 -13.17,13.57 -21.94,29.47 -27.39,49.23 -1.14,-0.44 -2.42,-0.93 -3.39,-1.29 -4.1,-52.59 18.83,-95.4 68.34,-128.37 -0.79,-1.36 -1.59,-2.73 -2.39,-4.09 -17.71,4.16 -34.51,9.62 -48.83,18.61 14.49,-11.15 29.8,-20.2 45.27,-27.05 0.52,-0.23 1.05,-0.46 1.57,-0.69 0.77,-0.33 1.54,-0.65 2.31,-0.97 0.64,-0.27 1.28,-0.54 1.93,-0.8 0.61,-0.25 1.22,-0.49 1.83,-0.73 0.93,-0.37 1.85,-0.73 2.78,-1.08 l 1.2,-0.45 c 0.4,-0.15 0.8,-0.29 1.21,-0.44 l 0.66,-0.24 c 0.37,-0.13 0.73,-0.26 1.1,-0.39 0.28,-0.1 0.57,-0.2 0.86,-0.3 45.88,-15.9 91.34,-12.28 119.6,13.5 -3.66,-9.06 -1.37,-18.61 4.78,-23.73 -3.42,9.56 -1.03,21.51 4.44,25.61 -0.35,-7.34 1.19,-15.88 4.09,-20.83 0,4.1 0.86,9.39 2.05,13.32 4.1,-34.84 21.9,-61.92 35.18,-63.18 7.17,-0.69 10.93,26.29 10.93,42.34 8.19,-14.68 41.32,-45.07 104.5,-36.2 -15.12,1.25 -30.1,6.93 -45.42,18.45 85.03,-31.08 183.39,31.07 149.24,163.58 8,-1.91 15.18,-1.83 21.85,-0.51 -14.35,28.92 -35.17,51.05 -62.15,65.05 -5.05,6.88 -10.93,14.94 -14.34,18.45 32.44,-2.39 70.35,2.39 99.38,15.36 -28.69,30.06 -72.61,37.85 -118.51,33.13 48.5,12.29 104.5,38.25 128.07,71.03 -43.37,8.2 -93.53,-2.86 -136.61,-22.53 29.72,17.41 73.09,48.49 75.14,68.98 -46.54,-4.51 -65.71,-12.69 -82.65,-21.17 22.25,20.43 41.53,40.88 43.71,61.47 -25.62,-2.44 -47.27,-12.16 -67.61,-24.25 10.93,10.48 18.4,19.42 20.49,25.96 h -14.69 c -11.09,-3.9 -21.44,-9.12 -31.59,-14.69 -0.59,0.61 -0.69,1.58 -0.51,2.73 3.53,2.65 6.17,7.05 8.19,12.64 h -28.68 c -6.49,7.51 -15.37,31.42 -13.32,42.69 11.92,65.57 -58.4,104.16 -107.92,104.84 -30.42,0.42 -34.56,-10.93 -34.83,-44.05 -0.34,-40.98 20.8377,-75.72478 44.0577,-100.99478 h -78.2 c -8.54,0 -18.6177,-2.31522 -20.4977,8.44478 45.42,56.01 29.69,141.5 6.83,143.77 -61.82,6.15 -107.58,-107.57 -72.06,-170.07 -11.51,6.45 -26.04,11.32 -45.42,13.66 5.76,-25.47 23.9,-45.42 43.03,-62.15 -24.93,12.29 -54.3,18.44 -81.97,20.83 4.44,-22.54 45.43,-51.91 75.14,-69.33 -43.72,19.13 -105.19,32.45 -137.97,26.98 20.83,-34.49 82.3,-63.52 131.14,-75.47 z M 1718.32,120.9 c -0.68,-0.17 -1.17,-2.83 -0.68,-3.42 3.41,-4.1 9.56,-6.14 15.36,-6.14 23.57,0 42.35,32.78 7.52,54.3 8.98,-0.3 18.67,-4.22 28.68,-9.91 -20.04,21.58 -30.39,49.38 -28,85.38 -4.29,7.81 -9.61,15.11 -16.05,21.86 20.15,-32.79 1.71,-77.19 14,-105.53 -3.75,3.07 -6.2,7.51 -8.88,11.27 2.05,-19.13 -11.61,-30.74 -9.22,-50.89 -1.21,0.72 -2.16,1.71 -2.73,3.08 z m 23.22,123.28 c -0.34,15.03 7.17,28.35 5.81,39.28 -13.66,12.63 -31.76,37.56 -32.1,49.86 -0.05,1.78 1.19,3.92 2.05,4.78 -4.61,3.67 -9.43,7.3 -14.35,10.93 7.44,0.2 12.71,-1.03 16.74,-3.08 9.56,43.03 0.34,83.67 -15.37,89.48 -21.86,-24.25 -22.14,-100.59 -5.47,-126.02 13.66,-20.83 34.84,-39.27 42.69,-65.23 z M 1502.14,74.1 c -13.25,-21.63 -39.62,-63.5 -37.22,-65.9 2.73,-2.73 35.52,35.17 55.03,58.9 -0.98,0.35 -1.91,0.68 -2.82,1 -3.64,1.29 -6.95,2.53 -11.87,4.63 -1.14,0.48 -3.12,1.37 -3.12,1.37 z m 56.01,178.8 c -5.18,2.33 -14.77,9.8 -16.05,15.19 -2.93,12.3 15.69,23.38 24.83,28.18 17.04,8.94 41.75,-4.4 41.51,-17.67 -3.02,12.06 -19.22,18.95 -30.39,17.94 -18.47,-1.67 -34.79,-20.66 -34.5,-25.58 0.34,-5.81 8.95,-15.06 14.6,-18.06 z m 46.8,26.23 c 0.42,-5.46 7.67,-6.18 7.59,-0.38 -2.28,-4.58 -5.61,-2.65 -7.59,0.38 z m -21.26,-5.58 c -0.11,-4.14 6.62,-7.51 7.85,-2.62 -2.78,-1.76 -6.21,-0.7 -7.85,2.62 z"
   class="fil0"
   id="Body" />
  <path
   d="M1612.91 251.66c0.19,-1.02 0.51,-2.12 0.77,-3.75 -11.47,-44 19.54,-63.07 62.75,-67.62 8.27,-0.87 17.9,-7.08 21,-12.98 -2.42,7.02 -8.7,12.76 -16.9,18.36 5.35,0.34 10.71,-1.26 14.6,-4.1 -3.65,5.25 -9.65,7.1 -16.31,7.85 -0.43,1.09 -0.85,2.17 -1.28,3.25 2.84,0.43 5.83,0.33 8.96,0.08 -1.84,1.69 -5.07,2.61 -9.3,2.99 1.05,29.26 -24.56,46.2 -59.34,53.19 -1.62,0.33 -3.25,1.39 -4.95,2.73z"
   class="fil1"
   id="EyelashesL" />
  <path
   d="M1615.56 248.53c-2.61,-1.17 -4.93,-28.62 6.51,-40.56 9.73,-10.15 24.19,-20.04 49.5,-20.91 4.76,9.67 3.31,24.26 -3.05,33.72 -12.19,18.16 -50.96,28.65 -52.96,27.75z"
   class="fil2"
   id="WhiteEyeL" />
  <path
   d="M1627.11 202.91c-2.9,21.46 16.93,33.38 34.86,23.17 11.35,-6.46 17.75,-28.8 5.18,-38.92 -13.35,0.21 -30.18,6.14 -40.04,15.75z"
   class="fil3"
   id="IrisL" />
  <path
   d="M1657.88 194.68c11.23,6.36 2.23,28.07 -12.25,20.4 -11.05,-5.85 -1.47,-28.16 12.25,-20.4z"
   class="fil4"
   id="PupilL" />
  <path
   mask="url(#id0)"
   d="M1638.8 207.18c6.23,2.03 12.19,-14.43 6.95,-14.56 -3.17,-0.08 -7.55,2.94 -8.63,6.68 -2.15,0.38 -13.72,6.22 -15.84,16.83 4.91,-9.51 13.15,-14.77 15.29,-15.43 -0.44,3.01 0.27,5.84 2.23,6.48z"
   style="mask:url(#id0)"
   class="fil5"
   id="Blick1L" />
  <path
   d="M1660.67 211.65c1.38,1.28 3.47,-2.15 2.22,-3.16 -1.25,-1.02 -3.54,1.92 -2.22,3.16z"
   class="fil6"
   id="Blick2L" />
  <path
   d="M1557.76 251.95c-1.11,-21.86 -9.69,-43.04 -25.35,-50.97 -2.62,-1.33 -4.99,-4.9 -5.81,-8.11 -1.45,4.04 -0.38,9.79 5.38,14.85 -2.1,1.24 -4.54,0.59 -7.09,-0.68 0.38,2.58 3.8,5.76 8.2,6.4 -1.17,1.94 -3.7,2.82 -7.6,2.48 1.8,1.99 4.61,2.73 8.45,2.22 1.11,14.43 11.27,30.39 23.82,33.81z"
   class="fil1"
   id="EyelashesR" />
  <path
   d="M1536.47 210.03c-2.56,1.71 -0.86,34.32 20.61,41.72 0.39,-23.28 -18.57,-43.08 -20.61,-41.72z"
   class="fil7"
   id="WhiteEyeR" />
  <path
   d="M1541.85 213.67c-0.51,10.49 3.99,29.22 14.74,30.04 -1.77,-11.76 -7.2,-22.39 -14.74,-30.04z"
   class="fil8"
   id="IrisR" />
  <path
   d="M1554.44 234.18c-1.18,-5.03 -4.43,-12.09 -6.14,-11.83 -1.82,3.05 0.69,13.48 6.14,11.83z"
   class="fil9"
   id="PupilR" />
  <path
   mask="url(#id2)"
   d="M1545.24 219.18c-1.85,-2 -5.17,-2.32 -6.7,-1.28 3.06,0.21 5.01,1.11 6.62,3.07 -0.69,7.42 5.31,7.43 4.87,4.02 -0.31,-2.39 -2.8,-5.14 -3.62,-5.76 -0.32,-0.23 -0.88,-0.2 -1.17,-0.05z"
   style="mask:url(#id2)"
   class="fil6"
   id="Blick1R" />
  <ellipse
   ry="0.72"
   rx="0.75"
   cy="234.78"
   cx="1553.46"
   class="fil6"
   id="Blick2R" />
 </g>
 <g
   id="Text">
  <metadata
   id="CorelCorpID_1Corel-Layer" />
  <path
   d="M316.91 423l-86.34 56 287.54 0 24.35 -56 -225.55 0zm56.28 -272l61.99 0 -93.92 216 -86.34 56 118.27 -272z"
   class="fil0"
   id="L1" />
  <path
   d="M578.36 479l142.62 -328 20.36 95.77 -100.98 232.23 -62 0zm159.17 -328l45.45 0 -30.53 70.2 -14.92 -70.2z"
   class="fil0"
   id="I" />
  <polygon
   points="750.86,291.56 713.45,377.6 735,479 928,479 952.35,423 778.79,423 "
   class="fil0"
   id="L2" />
  <polygon
   points="1013.35,423 1136,423 1160.35,367 1081,367 1035.09,151 1093.78,151 1128,312 1184.26,312 1254.27,151 1316.62,151 1174,479 989,479 "
   class="fil0"
   id="Y" />
  <polygon
   points="522.14,537 205.35,537 157.95,646 243,824 80.56,824 56.21,880 280,880 304.35,824 219.95,646 242.56,594 497.36,594 "
   class="fil0"
   id="S" />
  <path
   d="M266.34 620l-11.31 26 10.97 31 195.27 0 24.78 -57 -219.71 0zm68.1 67l61.48 0 -30.44 70 31.87 67 -24.35 56 -61 0 24.35 -56 -32.35 -67 30.44 -70z"
   class="fil0"
   id="T" />
  <path
   d="M523.17 605.91l35.62 -81.91 62.01 0 -97.63 81.91zm-17.42 40.09l97.61 -81.91 -137.36 315.91 -62 0 101.75 -234z"
   class="fil0"
   id="I_0" />
  <polygon
   points="644.14,537 546.05,762.6 571,880 833,880 857.35,824 755.13,646 783.39,581 1434.98,581 1454.11,537 742.52,537 695.13,646 795,824 617.1,824 605.56,769.72 706.75,537 "
   class="fil0"
   id="LS" />
  <path
   d="M1025.4 646l126 0 -77.4 178 -126 0 77.4 -178zm-39.04 -52l249 0 -124.36 286 -249 0 124.36 -286z"
   class="fil0"
   id="O" />
  <polygon
   points="1142,880 1266.36,594 1329.36,594 1369.4,782.38 1476.09,537 2127.35,537 2102.57,594 1514.5,594 1390.15,880 1326.95,880 1288.92,687 1205,880 "
   class="fil0"
   id="N" />
 </g>
<g
   id="layer1" /></svg>