<?xml version="1.0" encoding="UTF-8" standalone="no"?>
<svg
   xmlns:dc="http://purl.org/dc/elements/1.1/"
   xmlns:cc="http://creativecommons.org/ns#"
   xmlns:rdf="http://www.w3.org/1999/02/22-rdf-syntax-ns#"
   xmlns:svg="http://www.w3.org/2000/svg"
   xmlns="http://www.w3.org/2000/svg"
   xmlns:sodipodi="http://sodipodi.sourceforge.net/DTD/sodipodi-0.dtd"
   xmlns:inkscape="http://www.inkscape.org/namespaces/inkscape"
   id="svg4620"
   version="1.1"
   viewBox="0 0 500 500"
   height="500"
   width="500"
   sodipodi:docname="Soundcloud.svg"
   inkscape:version="0.92.3 (2405546, 2018-03-11)">
  <sodipodi:namedview
     pagecolor="#ffffff"
     bordercolor="#666666"
     borderopacity="1"
     objecttolerance="10"
     gridtolerance="10"
     guidetolerance="10"
     inkscape:pageopacity="0"
     inkscape:pageshadow="2"
     inkscape:window-width="1624"
     inkscape:window-height="1017"
     id="namedview883"
     showgrid="false"
     inkscape:zoom="0.944"
     inkscape:cx="169.15744"
     inkscape:cy="168.81036"
     inkscape:window-x="-8"
     inkscape:window-y="-8"
     inkscape:window-maximized="1"
     inkscape:current-layer="svg4620" />
  <metadata
     id="metadata4626">
    <rdf:RDF>
      <cc:Work
         rdf:about="">
        <dc:format>image/svg+xml</dc:format>
        <dc:type
           rdf:resource="http://purl.org/dc/dcmitype/StillImage" />
        <dc:title></dc:title>
      </cc:Work>
    </rdf:RDF>
  </metadata>
  <defs
     id="defs4624">
    <linearGradient
       gradientTransform="matrix(4.952577,0,0,4.952577,19.742284,150.00046)"
       y2="53.006302"
       x2="46.492699"
       y1="0"
       x1="46.492699"
       gradientUnits="userSpaceOnUse"
       id="SVGID_1_">
      <stop
         id="stop5227"
         style="stop-color:#0394ff;stop-opacity:1"
         offset="0" />
      <stop
         id="stop5229"
         style="stop-color:#0061a7;stop-opacity:1"
         offset="1" />
    </linearGradient>
  </defs>
  <g
     style="display:none"
     id="layer1">
    <g
       transform="matrix(1.000014,0,0,1.0000186,189.2989,207.49921)"
       id="g894">
      <g
         id="g854">
        <path
           style="fill:#03abff;fill-opacity:1"
           class="st0"
           d="M 118.9,13.3 C 117.5,8.1 113.4,4 108.2,2.6 98.7,0 60.7,0 60.7,0 60.7,0 22.7,0 13.2,2.5 8.1,3.9 3.9,8.1 2.5,13.3 0,22.8 0,42.5 0,42.5 0,42.5 0,62.3 2.5,71.7 3.9,76.9 8,81 13.2,82.4 22.8,85 60.7,85 60.7,85 c 0,0 38,0 47.5,-2.5 5.2,-1.4 9.3,-5.5 10.7,-10.7 2.5,-9.5 2.5,-29.2 2.5,-29.2 0,0 0.1,-19.8 -2.5,-29.3 z"
           id="path850" />
        <polygon
           style="fill:#ffffff"
           class="st1"
           points="80.2,42.5 48.6,24.3 48.6,60.7 "
           id="polygon852" />
      </g>
      <g
         id="g872">
        <g
           id="g870" />
      </g>
    </g>
  </g>
  <g
     style="display:none"
     id="layer2">
    <g
       transform="translate(0,308)"
       style="fill:none;fill-rule:evenodd"
       id="g4618">
      <path
         style="fill:#ffffff"
         id="path4616"
         d="M 311.04865,-90.853779 C 311.93822,-93.820228 311.04865,-96 306.8149,-96 h -14 c -3.55974,0 -5.20083,1.883003 -6.09088,3.959395 0,0 -7.11948,17.353542 -17.20516,28.625802 -3.26297,3.262971 -4.74632,4.301167 -6.52619,4.301167 -0.88981,0 -2.17801,-1.038196 -2.17801,-4.004398 V -90.853779 C 260.81466,-94.413518 259.7816,-96 256.8149,-96 h -21.99999 c -2.22453,0 -3.56238,1.652156 -3.56238,3.217967 0,3.374568 5.04259,4.152782 5.56238,13.64542 V -58.5201 c 0,4.5201 -0.81631,5.33961 -2.59618,5.33961 -4.74607,0 -16.2909,-17.431069 -23.13806,-37.376767 C 209.7388,-94.43401 208.39292,-96 204.81491,-96 h -14 c -4,0 -4.80005,1.883003 -4.80005,3.959395 0,3.708123 4.74632,22.099861 22.09961,46.424255 C 219.68325,-29.00473 235.98291,-20 250.81491,-20 c 8.89909,0 9.99999,-2 9.99999,-5.44499 V -38 c 0,-4 0.84305,-4.79829 3.66112,-4.79829 2.07639,0 5.63613,1.0382 13.94218,9.04749 9.4924,9.49239 11.05734,13.7508 16.3967,13.7508 h 14 c 4,0 6,-2 4.84623,-5.94689 -1.26256,-3.9337 -5.79467,-9.64097 -11.80835,-16.40649 -3.26321,-3.85626 -8.15767,-8.00905 -9.64102,-10.08593 -2.07639,-2.66943 -1.4831,-3.85626 0,-6.229174 0,0 17.05702,-24.027868 18.83689,-32.185295 z" />
    </g>
  </g>
  <g
     id="layer3">
    <path
       id="path5232"
       d="m 24.957364,269.61508 c -0.960776,0 -1.723456,0.7429 -1.84728,1.80275 l -3.367736,25.58008 3.367736,25.1393 c 0.1238,1.05981 0.886504,1.79776 1.84728,1.79776 0.93108,0 1.68884,-0.73299 1.837424,-1.78784 v 0 -0.004 0.004 l 3.991736,-25.14922 -3.991736,-25.58504 c -0.1438,-1.05489 -0.911304,-1.79779 -1.837424,-1.79779 z M 43.89606,255.63892 c -0.1588,-1.09944 -0.94596,-1.8572 -1.916696,-1.8572 -0.975664,0 -1.78292,0.78252 -1.91664,1.8572 0,0.008 -4.52668,41.35899 -4.52668,41.35899 l 4.52668,40.44271 c 0.1288,1.08464 0.936016,1.86716 1.91664,1.86716 0.965776,0 1.753256,-0.76272 1.911736,-1.85724 l 5.150664,-40.45263 z m 71.33689,-38.1497 c -1.85722,0 -3.39248,1.52048 -3.48164,3.45192 l -3.6055,76.09143 3.6055,49.17415 c 0.0942,1.92158 1.62442,3.4371 3.48164,3.4371 1.84728,0 3.37764,-1.52048 3.48662,-3.44698 v 0.012 l 4.07595,-49.17909 -4.07595,-76.09142 c -0.1092,-1.93151 -1.63934,-3.45195 -3.48662,-3.45195 z M 78.31146,243.936 c -1.426304,0 -2.590184,1.13908 -2.70408,2.65952 l -4.061104,50.41727 4.061104,48.77793 c 0.1092,1.51048 1.277776,2.64958 2.70408,2.64958 1.411496,0 2.575376,-1.1391 2.699192,-2.64958 l 4.615784,-48.77793 -4.615784,-50.42719 c -0.1238,-1.51052 -1.287696,-2.6496 -2.699192,-2.6496 z m 74.4422,105.70286 c 2.303,0 4.17504,-1.85724 4.26914,-4.23444 l 3.53609,-48.34705 -3.53117,-101.30498 c -0.0942,-2.37726 -1.9661,-4.23444 -4.2691,-4.23444 -2.32274,0 -4.19978,1.86214 -4.27406,4.2394 0,0.004 -3.13496,101.29506 -3.13496,101.29506 l 3.13496,48.36683 c 0.0742,2.35742 1.95132,4.21966 4.2691,4.21962 z m 76.81448,0.2275 c 3.16966,0 5.7846,-2.61004 5.84404,-5.8193 v 0.0346 -0.0346 l 2.4664,-46.96033 -2.4664,-116.99967 c -0.0542,-3.20431 -2.67438,-5.81931 -5.84404,-5.81931 -3.17458,0 -5.79454,2.61007 -5.84408,5.82427 l -2.20384,116.95509 c 0,0.0742 2.20384,47.02967 2.20384,47.02967 0.0496,3.17954 2.67442,5.78958 5.84408,5.78958 z m -38.69943,-0.1834 c 2.7586,0 4.98228,-2.21384 5.05656,-5.0368 v 0.0346 l 3.00129,-47.61409 -3.00625,-102.03792 c -0.0742,-2.82304 -2.29795,-5.03184 -5.05656,-5.03184 -2.77839,0 -5.00212,2.2088 -5.06155,5.03184 l -2.66941,102.04288 2.67437,47.60417 c 0.0596,2.79324 2.28316,5.00704 5.06155,5.00704 z M 96.700412,349.2372 c 1.639304,0 2.9666,-1.31242 3.090416,-3.04084 l 4.348342,-49.18405 -4.348342,-46.78703 c -0.119192,-1.72842 -1.446192,-3.03098 -3.090416,-3.03098 -1.664056,0 -2.991376,1.31246 -3.095376,3.05076 l -3.82832,46.76725 3.82832,49.17909 c 0.1092,1.73338 1.43132,3.0458 3.095376,3.0458 z M 60.07114,346.54304 c 1.19852,0 2.169256,-0.94596 2.30792,-2.25346 l 4.883256,-47.28719 -4.878296,-49.07015 c -0.1438,-1.31242 -1.11436,-2.25838 -2.31288,-2.25838 -1.213376,0 -2.18408,0.95092 -2.307856,2.25838 0,0.004 -4.298864,49.07015 -4.298864,49.07015 l 4.298864,47.27731 c 0.1192,1.31242 1.08952,2.26334 2.307856,2.26334 z M 210.14413,193.33005 c -2.99632,0 -5.39831,2.38224 -5.45775,5.433 l -2.43666,98.31362 2.43666,47.30703 c 0.0596,3.01114 2.4565,5.39336 5.45775,5.39336 2.99137,0 5.37849,-2.37728 5.44781,-5.42804 v 0.0392 l 2.73388,-47.30697 -2.73388,-98.3285 c -0.0696,-3.04088 -2.45644,-5.42308 -5.44781,-5.42308 z m -76.22014,156.40739 c 2.0702,0 3.77878,-1.68884 3.87786,-3.84318 l 3.80356,-48.84729 -3.80356,-93.49478 c -0.1038,-2.15934 -1.80766,-3.84314 -3.87786,-3.84314 -2.09,0 -3.79368,1.68876 -3.8828,3.84314 0,0.004 -3.3678,93.49478 -3.3678,93.49478 l 3.37272,48.86707 c 0.0842,2.13456 1.78788,3.8234 3.87788,3.8234 z m 42.47326,-4.61086 v -0.0268 l 3.26874,-48.03999 -3.26874,-104.71732 c -0.0792,-2.6001 -2.12955,-4.64056 -4.66035,-4.64056 -2.54561,0 -4.59598,2.03552 -4.66533,4.64056 l -2.90218,104.71236 2.90715,48.06475 c 0.0696,2.57534 2.11972,4.61086 4.66036,4.61086 2.53571,0 4.57615,-2.03552 4.66035,-4.6257 z M 423.62,236.69978 c -7.76066,0 -15.16479,1.56998 -21.91017,4.39788 C 397.20299,190.04653 354.39288,150 302.1729,150 c -12.77761,0 -25.23337,2.51594 -36.23301,6.77016 -4.27406,1.65414 -5.41316,3.35786 -5.45278,6.66122 v 179.77854 c 0.0446,3.46678 2.73378,6.35416 6.11642,6.69588 0.1438,0.012 156.00119,0.0942 157.01155,0.0942 31.28049,0 56.64257,-25.36214 56.64257,-56.64753 0,-31.28547 -25.35715,-56.65257 -56.63764,-56.65257 z M 248.90793,163.273 c -3.40239,0 -6.19564,2.79328 -6.24516,6.22538 l -2.55556,127.60321 2.56051,46.31153 c 0.045,3.38258 2.83782,6.1709 6.24021,6.1709 3.39257,0 6.18581,-2.78836 6.23535,-6.22046 v 0.0542 l 2.77836,-46.31649 -2.77836,-127.61305 c -0.0496,-3.42224 -2.84278,-6.21552 -6.23535,-6.21552 z"
       style="fill:url(#SVGID_1_);stroke-width:4.95257664"
       inkscape:connector-curvature="0"
       sodipodi:nodetypes="scccsccccccscscccscccccccsccccccscccscccsscccscccsscccccscccscccccscccccscccscccsscccscccsccccsccccccscccscccsccccscccsccccsccccssccccccscccccc" />
  </g>
</svg>
